<?xml version="1.0" standalone="no"?>
<!DOCTYPE svg PUBLIC "-//W3C//DTD SVG 20010904//EN"
 "http://www.w3.org/TR/2001/REC-SVG-20010904/DTD/svg10.dtd">
<svg version="1.0" xmlns="http://www.w3.org/2000/svg"
 width="700.000000pt" height="700.000000pt" viewBox="0 0 700.000000 700.000000"
 preserveAspectRatio="xMidYMid meet">
<metadata>
Created by potrace 1.14, written by Peter Selinger 2001-2017
</metadata>
<g transform="translate(0.000000,700.000000) scale(0.100000,-0.100000)"
fill="#000000" stroke="none">
<path d="M3837 6824 c-1 -1 -36 -5 -77 -8 -41 -4 -115 -14 -165 -22 -49 -9
-101 -17 -115 -19 -53 -8 -269 -65 -355 -93 -702 -231 -1357 -720 -1836 -1372
-93 -126 -183 -261 -256 -385 -80 -134 -193 -359 -248 -490 -21 -49 -43 -103
-50 -120 -25 -59 -64 -172 -99 -280 -30 -93 -43 -141 -72 -255 -19 -78 -73
-360 -78 -413 -4 -37 -9 -77 -11 -88 -19 -96 -26 -555 -12 -699 15 -143 18
-166 38 -285 30 -182 118 -494 172 -617 8 -18 30 -67 48 -108 70 -156 167
-320 288 -483 66 -89 74 -93 84 -36 15 83 110 388 166 539 36 94 37 96 80 193
17 38 31 70 31 73 0 12 139 281 193 374 59 101 117 194 134 215 5 6 17 24 27
40 11 17 56 80 102 140 282 378 661 717 1064 954 58 34 112 66 120 71 18 11
152 77 370 183 338 163 577 331 820 576 368 370 613 797 783 1361 32 105 98
384 111 470 3 19 8 46 10 60 3 14 7 43 11 65 3 22 7 54 10 70 3 17 7 46 10 66
l5 37 -93 46 c-259 129 -503 198 -817 232 -54 6 -388 12 -393 8z"/>
<path d="M5840 5868 c-84 -327 -279 -806 -453 -1108 -55 -97 -223 -358 -237
-370 -3 -3 -17 -21 -30 -40 -13 -19 -27 -37 -30 -40 -3 -3 -21 -25 -40 -50
-126 -163 -331 -371 -515 -521 -170 -139 -313 -233 -579 -382 -583 -324 -1002
-725 -1388 -1327 -68 -105 -137 -231 -217 -396 -178 -362 -334 -808 -405
-1160 -3 -10 -9 -38 -14 -62 -9 -40 -9 -43 17 -56 85 -44 402 -134 536 -152
28 -3 59 -8 70 -10 113 -22 507 -22 621 0 11 2 47 7 79 10 244 26 639 153 927
297 455 228 882 567 1218 968 25 29 50 59 55 65 25 26 167 218 227 306 264
388 487 877 599 1312 17 66 33 131 35 145 3 14 11 53 19 87 7 33 17 81 20 106
3 25 8 52 10 60 2 8 7 39 10 69 4 30 8 63 10 73 20 100 28 613 12 758 -13 122
-38 285 -62 405 -7 34 -44 168 -73 267 -58 195 -187 465 -312 658 -92 140 -96
143 -110 88z"/>
</g>
</svg>
